<?xml version="1.0" encoding="utf-8"?>
<svg version="1.1" id="Layer_1" x="0px" y="0px" viewBox="0 0 500 500" style="enable-background:new 0 0 448 448;" xmlns="http://www.w3.org/2000/svg" xmlns:bx="https://boxy-svg.com">
  <defs>
    <bx:grid x="0" y="0" width="81.091" height="81.507"/>
  </defs>
  <g style="" transform="matrix(1, 0, 0, 1, 26.348825, 27.336847)">
    <title>Mountains</title>
    <path style="fill:#D9CDC1;" d="M 403.037 147 C 397.537 147 392.337 149.2 388.337 153.3 C 387.137 154.5 386.537 154.5 386.137 154.5 L 386.137 154.5 C 385.937 154.5 385.637 154.5 385.337 154.4 C 384.437 154 383.337 152.9 383.037 152.1 C 379.137 139.7 367.737 131 355.037 131 L 340.737 131 L 374.537 189 L 403.037 189 C 414.637 189 424.037 179.6 424.037 168 C 424.037 156.4 414.537 147 403.037 147 Z"/>
    <path style="fill:#FFF8EF;" d="M 299.537 81.6 L 335.537 144 L 301.937 144 L 306.737 130.4 C 307.537 128 306.737 125.6 305.937 123.2 C 303.537 120.8 301.137 120 298.737 120 L 281.137 120 L 299.537 81.6 Z"/>
    <path style="fill:#67BC34;" d="M 378.737 256 L 378.737 240 L 354.737 240 L 354.737 256 L 378.737 256 Z M 243.537 200.8 L 273.937 136 L 287.537 136 L 282.737 149.6 C 281.937 152 282.737 154.4 283.537 156.8 C 285.137 159.2 287.537 160 289.937 160 L 344.337 160 L 404.337 264 L 271.537 264 L 267.537 256 L 338.737 256 L 338.737 240 L 261.137 240 L 243.537 200.8 Z"/>
    <path style="fill:#FFF8EF;" d="M 238.037 82.1 C 235.937 72.7 227.737 66.2 217.937 66.2 C 209.637 66.2 202.237 71.2 198.937 78.8 L 198.837 79 L 198.737 79.2 C 198.537 79.8 198.037 80.4 197.637 80.6 C 196.137 80.6 194.537 80 194.237 79.7 L 191.837 77.3 L 183.737 83 L 190.937 98.2 L 195.437 99.5 L 220.237 99.5 C 223.037 99.5 225.337 98.3 227.237 97.4 L 227.937 97 L 228.337 96.6 C 228.337 96.6 228.337 96.6 228.437 96.6 C 229.037 96.3 229.937 95.8 230.937 94.9 L 232.037 93.8 C 234.537 92.2 235.737 89.8 236.637 88 L 237.137 86.9 L 237.137 86.5 C 237.437 85.8 237.937 84.7 237.937 83.3 L 237.937 82.8 L 238.037 82.1 Z"/>
    <path style="fill:#D9CDC1;" d="M 234.737 80 C 234.737 81.6 234.737 82.4 233.937 84 C 232.337 76.8 225.937 72 218.737 72 C 212.337 72 206.737 76 204.337 81.6 C 203.537 84 201.137 85.6 198.737 86.4 C 196.337 87.2 193.137 86.4 191.537 84 L 189.937 82.4 L 189.137 81.6 L 182.737 72.2 L 186.737 72 C 187.537 72 187.537 72 187.537 72 C 187.537 72 188.337 72.8 189.137 73.6 L 190.737 75.2 C 192.337 76.8 195.537 77.6 197.937 77.6 C 200.337 77.6 202.737 75.2 203.537 72.8 C 205.937 67.2 211.537 63.2 217.937 63.2 C 227.537 64 234.737 71.2 234.737 80 Z"/>
    <path style="fill:#B37D4D;" d="M 226.737 432 C 197.137 432 168.337 425.6 141.137 415.2 C 149.137 413.6 154.737 409.6 158.737 407.2 C 164.337 403.2 169.137 400.8 178.737 400.8 C 188.337 400.8 192.337 404 197.937 407.2 C 204.337 411.2 212.337 416.8 225.937 416.8 C 240.337 416.8 248.337 411.2 254.737 407.2 C 260.337 403.2 264.337 400.8 273.937 400.8 C 283.537 400.8 288.337 404 293.137 407.2 C 297.937 410.4 302.737 413.6 310.737 415.2 C 285.137 425.6 256.337 432 226.737 432 Z"/>
    <path style="fill:#FFF8EF;" d="M 146.737 27.2 L 185.137 112 L 149.937 112 L 154.737 98.4 C 155.537 96 154.737 93.6 153.937 91.2 C 151.537 88.8 149.137 88 146.737 88 L 117.937 88 L 146.737 27.2 Z"/>
    <path style="fill:#7AC943;" d="M 226.737 352 C 213.137 352 206.737 348.8 199.537 344.8 C 191.537 340.8 182.737 336 165.137 336 C 147.537 336 138.737 340.8 130.737 344.8 C 123.537 348.8 117.137 352 103.537 352 C 89.937 352 84.337 348.8 76.337 344.8 C 68.337 340.8 59.537 336 41.937 336 C 36.337 328 31.537 320 27.537 312 L 424.337 312 C 420.337 320 414.737 328 409.937 336 C 393.137 336 383.537 340.8 375.537 344.8 C 369.137 348.8 362.737 352 349.137 352 C 335.537 352 329.137 348.8 321.937 344.8 C 313.937 340.8 305.137 336 287.537 336 C 269.937 336 261.137 340.8 253.137 344.8 C 246.737 348.8 240.337 352 226.737 352 Z"/>
    <path style="fill:#FFF8EF;" d="M 106.737 192 C 106.737 192.8 105.937 194.4 105.937 195.2 C 105.937 194.4 105.937 192.8 106.737 192 Z"/>
    <path style="fill:#2FB4C2;" d="M 226.737 368 C 244.337 368 253.137 363.2 261.137 359.2 C 268.337 355.2 274.737 352 288.337 352 C 301.937 352 308.337 355.2 315.537 359.2 C 323.537 363.2 332.337 368 349.937 368 C 367.537 368 376.337 363.2 384.337 359.2 C 388.337 356.8 392.337 355.2 397.137 353.6 C 387.537 364.8 376.337 375.2 365.137 384 C 354.737 385.6 348.337 389.6 342.737 392.8 C 337.137 396.8 332.337 400 322.737 400 C 313.137 400 308.337 396.8 302.737 393.6 C 297.137 389.6 289.137 384 274.737 384 C 260.337 384 252.337 389.6 245.937 393.6 C 240.337 396.8 236.337 400 226.737 400 C 217.137 400 213.137 396.8 207.537 393.6 C 201.137 389.6 193.137 384 178.737 384 C 164.337 384 156.337 389.6 149.937 393.6 C 144.337 396.8 140.337 400 130.737 400 C 121.137 400 116.337 396.8 110.737 393.6 C 105.937 390.4 99.537 385.6 88.337 384.8 C 76.337 376 65.937 365.6 56.337 354.4 C 61.137 356 65.137 357.6 69.137 360 C 77.137 364 85.937 368.8 103.537 368.8 C 121.137 368.8 129.937 364 137.937 360 C 145.137 356 151.537 352.8 165.137 352.8 C 178.737 352.8 185.137 356 192.337 360 C 200.337 363.2 209.137 368 226.737 368 Z"/>
    <g>
      <path style="fill:#FFF8EF;" d="M111.537,190.7c-3.1-11.4-13.6-19.7-24.8-19.7c-6.9,0-12.4,2.8-15.6,5.6c-0.4,0.2-0.8,0.3-1,0.3 l-0.6-0.3h-1.2c-0.3,0-1.2-0.9-1.8-1.5c-5.9-7.7-14.6-12.1-23.8-12.1c-13.7,0-25.6,9.5-29.6,23.6l-0.2,0.7v0.7 c0,1.5,0.5,2.6,0.9,3.3c0.2,1,0.5,1.9,0.8,2.4c0.1,1,0.5,1.7,0.7,2.3v1.3l1.3,1.3c0,0,0,0,0,0.1c0.2,0.4,0.5,1.1,1.1,1.8 c0.9,1.7,2.1,3.8,4.3,5.2l2.7,2.7c0.4,0.4,1.4,1.3,2.7,1.8c1.1,0.8,2.2,1.3,4,1.3h0.8c0.7,0.3,1.8,0.8,3.2,0.8 c0.2,0,0.8,0.2,1.2,0.3c1,0.2,2.2,0.5,3.6,0.5h48c6.4,0,12.4-2.3,16.3-6.3l2.4-2.4c1-1,1.5-1.9,1.7-2.5c0,0,0,0,0-0.1l1.3-1.3v-1.3 c0.3-0.7,0.8-1.8,0.8-3.2v-0.4c0-0.1,0.1-0.3,0.1-0.4c0.3-0.9,0.7-2,0.7-3.2v-0.7L111.537,190.7z"/>
      <path style="fill:#FFF8EF;" d="M301.637,126c0.4,1.2,0.6,2.2,0.4,2.7l-7.2,20.3h49.3l-45.1-78.1l-25.8,54.1h25.5 C299.537,125,300.437,125.1,301.637,126z"/>
    </g>
    <path style="fill:#7AC943;" d="M 333.737 245 L 333.737 251 L 259.437 251 L 268.437 269 L 412.937 269 L 347.137 155 L 289.837 155 C 288.737 155 288.237 154.7 287.937 154.4 C 287.537 153.1 287.137 151.9 287.337 151.2 L 294.537 130.9 L 270.737 130.9 L 238.037 200.7 L 257.937 244.9 L 333.737 244.9 L 333.737 245 Z M 359.737 245 L 373.737 245 L 373.737 251 L 359.737 251 L 359.737 245 Z"/>
    <path style="fill:#B37D4D;" d="M 295.937 403 C 290.837 399.6 285.037 395.8 273.937 395.8 C 263.037 395.8 257.937 398.8 251.937 403 L 250.937 403.6 C 244.937 407.4 238.037 411.7 225.937 411.7 C 214.637 411.7 207.837 407.4 201.837 403.6 L 200.637 402.8 L 200.437 402.7 C 199.737 402.3 199.037 401.9 198.437 401.5 C 193.537 398.6 188.537 395.6 178.737 395.6 C 168.237 395.6 162.437 398.2 156.037 402.8 C 155.537 403.1 155.037 403.4 154.437 403.8 C 150.737 406.1 146.237 408.9 140.237 410.1 L 123.237 413.5 L 139.437 419.7 C 169.137 431.1 198.537 436.8 226.837 436.8 C 255.337 436.8 285.037 430.9 312.737 419.6 L 328.137 413.3 L 311.837 410 C 304.637 408.9 300.637 406.2 295.937 403 Z"/>
    <path style="fill:#FFF8EF;" d="M 149.637 94 C 150.037 95.2 150.237 96.2 150.037 96.7 L 142.837 117 L 192.837 117 L 146.837 15.3 L 110.037 93 L 146.737 93 C 147.537 93 148.437 93.1 149.637 94 Z"/>
    <path style="fill:#7AC943;" d="M 19.437 307 L 23.037 314.2 C 27.137 322.4 32.137 330.7 37.837 338.8 L 39.337 340.9 L 41.937 340.9 C 57.637 340.9 65.537 344.8 73.137 348.7 L 75.437 349.8 C 83.037 353.6 89.537 356.9 103.637 356.9 C 117.937 356.9 125.237 353.5 133.137 349.1 L 134.037 348.6 C 141.637 344.8 149.537 340.8 165.237 340.8 C 180.937 340.8 188.837 344.7 196.437 348.6 L 197.337 349.1 C 205.237 353.5 212.537 356.9 226.837 356.9 C 241.737 356.9 249.037 353.2 255.637 349.1 L 256.437 348.7 C 264.037 344.9 271.937 340.9 287.637 340.9 C 303.337 340.9 311.237 344.8 318.837 348.7 L 319.737 349.2 C 327.637 353.6 334.937 357 349.237 357 C 364.137 357 371.437 353.3 378.037 349.2 C 385.737 345.3 394.537 341 410.037 341 L 412.837 341 L 414.337 338.6 C 415.937 336 417.637 333.3 419.237 330.7 C 422.637 325.4 426.137 319.8 428.937 314.3 L 432.537 307.1 L 19.437 307.1 L 19.437 307 Z"/>
    <path style="fill:#2FB4C2;" d="M 381.937 354.8 L 381.137 355.2 C 373.537 359 365.637 363 349.937 363 C 334.237 363 326.337 359.1 318.737 355.2 L 317.837 354.7 C 309.937 350.3 302.637 346.9 288.337 346.9 C 274.037 346.9 266.737 350.3 258.837 354.7 L 257.937 355.2 C 250.337 359 242.437 363 226.737 363 C 212.437 363 204.437 359.7 197.437 356.7 C 196.437 356.3 195.437 355.9 194.537 355.5 C 186.637 351.1 179.437 347.8 165.137 347.8 C 150.837 347.8 143.537 351.2 135.637 355.6 L 134.737 356 C 127.137 359.8 119.237 363.8 103.537 363.8 C 87.837 363.8 79.937 359.9 72.337 356 L 71.537 355.6 C 66.837 352.8 62.137 351.1 57.937 349.6 L 40.837 344 L 52.537 357.7 C 63.537 370.6 74.337 380.8 85.337 388.9 L 86.537 389.8 L 87.937 389.9 C 97.037 390.6 102.537 394.2 106.937 397.2 L 108.137 398 L 109.437 398.8 C 114.837 401.9 120.537 405.2 130.737 405.2 C 140.537 405.2 145.537 402.2 150.437 399.3 C 151.137 398.9 151.737 398.5 152.437 398.1 L 152.537 398.1 L 153.737 397.3 C 159.737 393.5 166.637 389.2 178.737 389.2 C 190.837 389.2 197.737 393.5 203.737 397.3 L 204.837 398 L 205.037 398.1 C 205.737 398.5 206.437 398.9 207.037 399.3 C 211.937 402.2 216.937 405.2 226.737 405.2 C 236.537 405.2 241.537 402.2 246.437 399.3 C 247.137 398.9 247.737 398.5 248.437 398.1 L 248.537 398.1 L 249.737 397.3 C 255.737 393.5 262.637 389.2 274.737 389.2 C 287.737 389.2 294.737 394.2 299.837 397.9 L 300.037 398 L 301.437 398.8 C 306.837 401.9 312.537 405.2 322.737 405.2 C 334.137 405.2 340.137 401 345.437 397.2 L 346.337 396.7 C 351.637 393.7 357.037 390.5 365.837 389.2 L 367.137 389 L 368.137 388.2 C 380.337 378.6 391.637 367.9 400.837 357.1 L 412.637 343.4 L 395.537 349.1 C 391.237 350.3 386.637 352 381.937 354.8 Z"/>
    <g>
      <path style="fill:#7AC943;" d="M194.737,123h-56.8c-1.1,0-1.6-0.3-1.9-0.6c-0.4-1.3-0.8-2.5-0.6-3.2l7.2-20.3h-35.9l-27.1,58h7.9 c16.7,0,30.2,13.9,30.2,31c0,17.4-13.6,31-31,31h-42l-10.8,18h139.8v6h-142.6l-15.6,26h245.4L194.737,123z M199.737,243v-6h14v6 H199.737z"/>
      <path style="fill:#7AC943;" d="M194.737,232v16h24v-16H194.737z M86.737,224c20,0,36-16,36-36s-16-36-35.2-36l22.4-48h25.6 l-4.8,13.6c-0.8,2.4,0,4.8,0.8,7.2c1.6,2.4,4,3.2,6.4,3.2h53.6l61.6,136h-226.4h-2.4l9.6-16h144.8v-16h-136l4.8-8h35.2 c0.8,0,0.8,0,1.6,0C85.137,224,85.937,224,86.737,224z"/>
    </g>
    <g>
      <path style="fill:#D9CDC1;" d="M22.737,196.8c0.8,1.6,2.4,3.2,3.2,4C24.337,200,23.537,198.4,22.737,196.8z"/>
      <path style="fill:#D9CDC1;" d="M21.137,194.4c0.8,0.8,0.8,1.6,1.6,2.4C21.937,196,21.937,195.2,21.137,194.4z"/>
      <path style="fill:#D9CDC1;" d="M19.537,190.4c0,0.8,0,1.6,0.8,2.4C20.337,191.2,19.537,191.2,19.537,190.4z"/>
      <path style="fill:#D9CDC1;" d="M41.537,157c8,0,15.2,4.6,20,11c1.6,1.6,3.1,3.8,5.5,3.8s3.2-0.1,4.8-1.7c2.4-2.4,8.8-3.2,14.4-3.2 c11.2,0,20,8.8,20,20c0,1.6,0,2.4,0,4c-1.6-8.8-9.6-16-20-16c-5.6,0-9.6,2.4-12.8,4.8c-1.6,1.6-4,2.4-6.4,1.6 c-2.4-0.8-4-1.6-5.6-3.2c-4.8-6.4-12-10.4-20-10.4c-12,0-21.6,8.8-23.2,20c-0.8-1.6-0.8-2.4-0.8-4 C17.537,170.9,27.937,157,41.537,157z"/>
    </g>
    <g>
      <polygon style="fill:#67BC34;" points="170.737,128 195.537,232 218.737,232 218.737,248 198.737,248 202.737,264 254.737,264 &#10;&#9;&#9;192.337,128 &#9;"/>
      <polygon style="fill:#67BC34;" points="199.537,123 168.437,123 195.637,237 217.737,237 217.737,243 196.337,243 202.837,269 &#10;&#9;&#9;266.537,269 &#9;"/>
    </g>
    <polygon style="fill:#D9CDC1;" points="156.737 22 144.037 18 167.537 117 196.937 117"/>
    <g>
      <path style="fill:#67BC34;" d="M353.037,155h-32.1l35.1,114h62.8L353.037,155z M364.737,251v-6h14v6H364.737z"/>
      <path style="fill:#67BC34;" d="M322.737,160l32,104h50.4l-60-104H322.737z M354.737,240h24v16h-24V240z"/>
    </g>
    <polygon style="fill:#D9CDC1;" points="299.537 81.6 317.937 144 335.537 144"/>
    <path style="fill:#FFF8EF;" d="M 420.637 172.2 C 418.537 162.8 413.537 156 401.037 156 C 395.837 156 392.637 161.4 386.837 162.9 C 379.137 164.9 376.737 158.4 373.837 153.1 C 372.437 150.5 370.637 148.1 368.537 146 C 364.137 141.9 358.437 140.2 352.537 140.2 L 343.037 140.2 L 372.037 190.2 L 400.537 190.2 C 410.237 190.2 418.537 183.7 420.637 174.3 L 420.837 173.2 L 420.637 172.2 Z"/>
    <path style="fill:#42210B;" d="M 354.737 240 L 378.737 240 L 378.737 256 L 354.737 256 L 354.737 240 Z M 194.737 232 L 218.737 232 L 218.737 248 L 194.737 248 L 194.737 232 Z M 178.737 400 C 169.137 400 164.337 403.2 158.737 406.4 C 153.937 409.6 149.137 412.8 141.137 414.4 C 168.337 425.6 197.137 432 226.737 432 C 256.337 432 285.137 425.6 312.337 415.2 C 304.337 413.6 298.737 409.6 294.737 407.2 C 288.337 403.2 284.337 400 274.737 400 C 265.137 400 260.337 403.2 255.537 406.4 C 249.137 410.4 241.137 416 226.737 416 C 212.337 416 204.337 410.4 198.737 406.4 C 192.337 403.2 188.337 400 178.737 400 Z M 370.737 400 C 329.937 430.4 279.537 448 226.737 448 C 173.937 448 123.537 430.4 82.737 400 L 82.737 400 L 82.737 400 C 51.537 376 25.137 344.8 8.337 307.2 C 7.537 304.8 7.537 301.6 9.137 299.2 C 9.937 297.6 13.137 296 15.537 296 L 437.937 296 C 440.337 296 443.537 297.6 444.337 300 C 445.937 302.4 445.937 304.8 445.137 308 C 428.337 344.8 402.737 376 370.737 400 L 370.737 400 L 370.737 400 Z M 226.737 368 C 209.137 368 200.337 363.2 192.337 359.2 C 185.137 355.2 178.737 352 165.137 352 C 151.537 352 145.137 355.2 137.937 359.2 C 129.937 363.2 121.137 368 103.537 368 C 85.937 368 77.137 363.2 69.137 359.2 C 65.137 356.8 61.137 355.2 56.337 353.6 C 65.937 364.8 77.137 375.2 88.337 384 C 98.737 385.6 105.137 389.6 110.737 392.8 C 116.337 396.8 121.137 399.2 130.737 399.2 C 140.337 399.2 144.337 396 149.937 392.8 C 156.337 388.8 164.337 383.2 178.737 383.2 C 193.137 383.2 201.137 388.8 206.737 392.8 C 212.337 396.8 216.337 399.2 225.937 399.2 C 235.537 399.2 240.337 396 245.137 392.8 C 251.537 388.8 259.537 383.2 273.937 383.2 C 288.337 383.2 296.337 388.8 302.737 392.8 C 308.337 396.8 313.137 399.2 322.737 399.2 C 332.337 399.2 337.137 396 341.937 392.8 C 347.537 389.6 353.937 384.8 364.337 384 C 376.337 375.2 386.737 364.8 396.337 353.6 C 391.537 355.2 387.537 356.8 383.537 359.2 C 375.537 363.2 366.737 368 349.137 368 C 331.537 368 322.737 363.2 314.737 359.2 C 307.537 355.2 301.137 352 287.537 352 C 273.937 352 267.537 355.2 260.337 359.2 C 253.137 363.2 244.337 368 226.737 368 Z M 104.337 352 C 117.937 352 124.337 348.8 131.537 344.8 C 139.537 340.8 148.337 336 165.937 336 C 183.537 336 192.337 340.8 200.337 344.8 C 207.537 348.8 213.937 352 227.537 352 C 241.137 352 247.537 348.8 254.737 344.8 C 262.737 340.8 271.537 336 289.137 336 C 306.737 336 315.537 340.8 323.537 344.8 C 330.737 348.8 337.137 352 350.737 352 C 364.337 352 370.737 348.8 377.937 344.8 C 385.937 340.8 394.737 336 412.337 336 C 417.937 328 422.737 320 426.737 312 L 28.337 312 C 33.137 320 37.937 328 42.737 336 C 59.537 336 69.137 340.8 77.137 344.8 C 84.337 348.8 90.737 352 104.337 352 Z M 305.137 123.2 C 306.737 125.6 306.737 128 306.737 130.4 L 301.937 144 L 335.537 144 L 299.537 81.6 L 281.137 120 L 298.737 120 C 301.137 120 303.537 120.8 305.137 123.2 Z M 402.337 184 C 410.137 184 417.037 178.6 418.437 171 C 420.337 160.9 412.537 152 402.737 152 C 398.737 152 393.937 153.6 391.537 156.8 C 389.137 159.2 386.737 160 383.537 159.2 C 381.137 158.4 378.737 156 377.937 153.6 C 374.737 143.2 365.137 136 354.737 136 L 349.137 136 L 377.137 184 L 402.337 184 Z M 271.537 264 L 404.337 264 L 344.337 160 L 290.737 160 C 288.337 160 285.937 159.2 284.337 156.8 C 282.737 154.4 282.737 152 282.737 149.6 L 287.537 136 L 273.937 136 L 243.537 200.8 L 261.137 240 L 338.737 240 L 338.737 256 L 268.337 256 L 271.537 264 Z M 222.637 96.4 C 225.837 95.1 228.737 93.1 230.937 90.5 C 237.937 82.3 234.437 69.8 224.637 65.9 C 222.737 65.2 220.737 64.8 218.737 64.8 C 212.337 64.8 206.737 68.8 204.337 74.4 C 203.537 76.8 201.137 78.4 198.737 79.2 C 196.337 80 193.137 79.2 191.537 76.8 L 189.937 75.2 C 189.137 74.4 188.337 73.6 188.337 73.6 C 188.337 73.6 188.337 73.6 187.537 73.6 L 185.137 73.6 L 189.137 82.4 L 196.337 97.6 L 218.737 97.6 C 220.037 97.3 221.337 96.9 222.637 96.4 Z M 117.937 88 L 146.737 88 C 149.137 88 151.537 88.8 153.137 91.2 C 154.737 93.6 154.737 96 154.737 98.4 L 149.937 112 L 185.137 112 L 146.737 27.2 L 117.937 88 Z M 122.737 189.9 C 121.737 209.1 105.437 224 86.237 224 L 84.437 224 C 83.637 224 83.637 224 82.837 224 L 47.537 224 L 42.737 232 L 178.737 232 L 178.737 248 L 33.937 248 L 24.337 264 L 26.737 264 L 254.737 264 L 193.137 128 L 138.737 128 C 136.337 128 133.937 127.2 132.337 124.8 C 130.737 122.4 130.737 120 130.737 117.6 L 135.537 104 L 109.937 104 L 87.537 152 C 107.337 152 123.737 169 122.737 189.9 Z M 32.237 205.8 C 34.837 206.8 37.837 207.2 40.237 207.5 C 54.737 209.5 69.737 208 84.337 208 C 87.537 208 90.537 207.9 93.537 206.8 C 99.037 204.8 103.137 200.3 104.737 194.7 C 108.037 182.8 99.737 169.3 87.237 168.1 C 80.537 167.4 75.937 170.1 72.337 172.8 C 70.737 174.4 68.337 175.2 65.937 174.4 C 63.537 173.6 61.937 172.8 60.337 171.2 C 57.937 164 50.737 160 42.737 160 C 27.737 160 15.137 174.9 19.837 189.7 C 20.837 192.8 21.837 195.4 23.737 198 C 25.337 200.3 27.137 202.5 29.337 204.2 C 30.237 204.9 31.237 205.4 32.237 205.8 Z M 195.537 58.4 C 203.037 50.9 212.637 46.7 223.137 48.3 C 238.437 50.6 250.337 63.7 250.737 79.2 C 251.137 97.2 236.637 112 218.737 112 L 202.737 112 L 234.737 181.6 L 291.537 60.8 C 293.137 58.4 295.537 56.8 298.737 56 C 301.937 56 304.337 57.6 305.937 60 L 340.337 120 L 354.737 120 C 369.137 120 381.937 127.2 389.137 139.2 C 391.737 137.7 394.637 136.8 397.837 136.3 C 416.737 133.8 434.437 147.2 435.437 166.3 C 436.437 184.7 421.637 200 403.437 200 L 387.437 200 L 424.237 264 L 442.737 264 L 442.737 280 L 418.737 280 L 266.737 280 L 26.737 280 L 10.737 280 C 7.537 280 5.137 278.4 3.537 276 C 1.937 273.6 1.937 270.4 3.537 268 L 29.937 221.6 C 13.937 216.8 2.737 201.6 2.737 184 C 2.737 161.6 20.337 144 42.737 144 C 52.337 144 61.937 148 69.137 153.6 L 139.537 4 C 141.137 1.6 144.337 0 146.737 0 C 149.937 0 152.337 1.6 153.937 4.8 L 177.137 56 L 186.737 56 C 190.737 56 193.137 56.8 195.537 58.4 Z"/>
    <g/>
    <g/>
    <g/>
    <g/>
    <g/>
    <g/>
    <g/>
    <g/>
    <g/>
    <g/>
    <g/>
    <g/>
    <g/>
    <g/>
    <g/>
  </g>
</svg>